<svg width="22" height="10" viewBox="0 0 22 10" fill="none" xmlns="http://www.w3.org/2000/svg">
<path fill-rule="evenodd" clip-rule="evenodd" d="M5.64075 0.0380743C5.90907 0.110665 6.06057 0.357569 5.99131 0.609365C5.97171 0.680675 5.25624 1.35532 3.8495 2.62898L1.73714 4.54148L11.6956 4.55154L21.654 4.56156L21.7754 4.64278C21.8422 4.6874 21.925 4.79592 21.9593 4.88389C22.0154 5.02733 22.0145 5.05786 21.9503 5.1795C21.9109 5.25411 21.8256 5.34659 21.7607 5.385C21.648 5.45169 21.1889 5.45534 11.6895 5.46489L1.73636 5.47495L3.82822 7.36803C4.97877 8.40924 5.94062 9.31036 5.96569 9.37048C6.07093 9.62279 5.96362 9.85854 5.69759 9.9596C5.39721 10.0737 5.45572 10.1193 2.65209 7.58371C0.890842 5.99086 0.0311756 5.18707 0.0118294 5.11503C-0.00394821 5.0563 -0.00394821 4.96013 0.0118732 4.90141C0.0312195 4.82952 0.886414 4.02841 2.62827 2.45055C4.83857 0.448337 5.39811 -0.0281082 5.50477 0.0012545C5.51143 0.00307996 5.57261 0.0196644 5.64075 0.0380743Z" fill="#E16246"/>
</svg>